PathFileType	4	(X/Y/Z)	57_2_4_p0_0-281.trc
DataRate	CameraRate	NumFrames	NumMarkers	Units	OrigDataRate	OrigDataStartFrame	OrigNumFrames
41.0	41.0	5	27	m	41.0	211	282
Frame#	Time	RHip			RKnee			RAnkle			RBigToe			RSmallToe			RHeel			LHip			LKnee			LAnkle			LBigToe			LSmallToe			LHeel			Neck			Head			Nose			RShoulder			RElbow			RWrist			RThumb			RIndex			RPinky			LShoulder			LElbow			LWrist			LThumb			LIndex			LPinky			
		X1	Y1	Z1	X2	Y2	Z2	X3	Y3	Z3	X4	Y4	Z4	X5	Y5	Z5	X6	Y6	Z6	X7	Y7	Z7	X8	Y8	Z8	X9	Y9	Z9	X10	Y10	Z10	X11	Y11	Z11	X12	Y12	Z12	X13	Y13	Z13	X14	Y14	Z14	X15	Y15	Z15	X16	Y16	Z16	X17	Y17	Z17	X18	Y18	Z18	X19	Y19	Z19	X20	Y20	Z20	X21	Y21	Z21	X22	Y22	Z22	X23	Y23	Z23	X24	Y24	Z24	X25	Y25	Z25	X26	Y26	Z26	X27	Y27	Z27	
211	5.146341463414634	0.1885321555543386	0.5222932055708942	0.9375119981227712	0.2288026425926949	0.6433472887216681	1.3838262710252733	0.301623563363469	0.8693018995650943	1.7680558205268184	0.24906267624397355	0.7487740505593701	1.8352917048717299	0.30542089189107635	0.7151586386621901	1.8129726164171533	0.29853072292676025	0.9262592884738852	1.8029714460330954	0.017027019533308	0.5925702005683481	0.9704386609429292	0.014927304480272598	0.6414817626290487	1.393176035687658	0.06515947681134629	0.8580014667739114	1.7862483412810888	0.08865744138034981	0.6909094273557217	1.818460267932902	0.028824360692051302	0.7497431413611612	1.826715963527106	0.0856046823977351	0.9073746104767443	1.8288262528683432	-0.10306768910689737	0.2905655630951508	0.4893040278462794	-0.18321940891649874	0.21848827139709315	0.2977392143579231	-0.16483291658105237	0.16688655452781076	0.4082155116810947	0.03849889311822232	0.2865684548666982	0.5321396905681763	0.25098281580764603	0.2857845132635308	0.6393795347932235	0.4939776985669716	0.21544853323989668	0.7390964711577542	0.5712516820647398	0.20114608825012212	0.823747538266055	0.5859752961380863	0.17376771143019198	0.8225221746769473	0.5741683212516926	0.2263284020413243	0.8237918619425291	-0.18892194881893629	0.4310004942370469	0.5879422336681394	-0.24258186474550633	0.6502340179903124	0.7729131935767436	-0.43348219003728394	0.7050238450334577	0.8992348529304355	-0.5179004283188907	0.7180293777376014	1.0120212245438396	-0.5297842679192537	0.7158301566671552	1.0146251062955804	-0.4869287420360633	0.6640676091463921	1.0070360946275503
212	5.170731707317073	0.17893775100708384	0.5001881545417934	0.9224412436308598	0.22615965293300344	0.6401759550076028	1.3796063686443678	0.3018318097570935	0.8697645674310596	1.7679703558889541	0.2487438416020391	0.7442595153915722	1.826271651704639	0.30636800102402895	0.714141762715239	1.8085579199936934	0.294020946248305	0.9461853940144391	1.8049121393858503	0.011387431440276489	0.5858028058337028	0.9626964135161243	0.018497529780977108	0.6453914497602355	1.3895138184864122	0.06315776706767656	0.8565216075321398	1.785426295977032	0.0802941638405138	0.6900293119598147	1.814938983572887	0.028438511574801536	0.7491380420981851	1.8261211876008698	0.08544689056968303	0.9078476605455189	1.829510802303227	-0.10373659086091659	0.287395947626921	0.4788904977645383	-0.18366856216080096	0.2174999652341074	0.2938925996537181	-0.1593584738580511	0.14277843747633656	0.40843984585233684	0.027293786535657966	0.27233084707107363	0.5345070332801732	0.2709174203599914	0.25456909085782564	0.6118887339951714	0.5244457110305776	0.17491766578716894	0.6613186742571393	0.6041247536749901	0.12341761172502483	0.7435076003905574	0.6433304206851298	0.1612999127659525	0.7515060168144078	0.6205814343026119	0.24327177263644253	0.7488542881559465	-0.19432312103012697	0.4430939982889479	0.5834258090060963	-0.2664348252593216	0.6354717187810457	0.7524561177297541	-0.4767163054618242	0.7086312850011768	0.863608967281819	-0.5433487757017748	0.6944691423710619	0.9291495925394471	-0.6001452886502913	0.7302321147278594	0.9462894150911422	-0.5413766922798116	0.7327200378378471	0.9621590503786812
213	5.195121951219512	0.18228808093091659	0.5124587047656047	0.9223340199835495	0.22639783550840545	0.6389285760715018	1.3709558975965859	0.30173108569360463	0.8687961262766508	1.7670629848988733	0.24856777435587019	0.7437817995948851	1.826036222027956	0.31068302855540136	0.7255363405597898	1.807535211373266	0.2931790024575491	0.9461489036418366	1.8007194111407248	0.011322434367366479	0.5857325175474193	0.9626450513390058	0.018594458365319116	0.6458224911314161	1.3893694001321797	0.06390250287624058	0.8545713481605274	1.7806345863494444	0.08400141877698242	0.6751554224713763	1.8059595027240987	0.02837177542918389	0.7485292803664784	1.8258022469294404	0.08533939968000671	0.908067412504287	1.8290090433878061	-0.10360471315106148	0.28660474698272576	0.47564435412102063	-0.1808870137893976	0.1956431240927461	0.29875513752755783	-0.15920181631527802	0.14235092991737067	0.4082619682826043	0.03510897611210423	0.2597834896353713	0.5318659506895334	0.28138994805024337	0.238116040444692	0.6015007202425695	0.5470799250860766	0.18972228214405623	0.6441316457191829	0.6351672168100513	0.14028667982480308	0.7035797698069235	0.6585259551331759	0.18041111360991094	0.6991969029400331	0.6364386785825382	0.2139654019646536	0.7037647434129429	-0.19518466310103916	0.4403741541757519	0.5754869618301401	-0.2872129457082045	0.6520418119578919	0.7240131184680895	-0.512466158972859	0.7032843504182807	0.8310885397915931	-0.5855057813128726	0.7038877058921865	0.9136115237266261	-0.6181092228713067	0.7250958108484189	0.9174048411673468	-0.5815231030232979	0.7425538033786664	0.9106835648817744
214	5.219512195121951	0.1787767969594757	0.49998330486148757	0.92213085792663	0.22825655844263482	0.6468470473241894	1.3635998028733018	0.29752849052045843	0.865874325154627	1.7577494845562633	0.24845816916075383	0.7437294215051299	1.8258850525839516	0.3105899434226468	0.7255744414179363	1.8074129600536115	0.2934421915401977	0.9435671801132609	1.7949047763004917	0.011491803244557945	0.5834759981228345	0.9585388053551936	0.017164974755325274	0.6425335381611451	1.3810524438846195	0.0636590618023635	0.8491400165697065	1.7707327735094358	0.07968633685195713	0.6907743384088961	1.8106380159317228	0.027968623929377347	0.7491490719051046	1.8256685506384582	0.0863030212044804	0.906133158616208	1.823778892335198	-0.10632711824739456	0.272748753403426	0.4706422173912527	-0.18129610968935625	0.19406474644018623	0.29232385206134565	-0.1554933669133992	0.14258568135430602	0.404887975816675	0.03473581139979577	0.2566296324334623	0.5252406543803835	0.2776643247625914	0.2334698693019133	0.5807562657847518	0.5444572094009161	0.1729651937808508	0.5828914971608876	0.6533034010805144	0.15673683149168405	0.6528954819762414	0.6652370458957692	0.16608690775981413	0.6515145029496174	0.623643354751483	0.18110072468766591	0.6604140984625494	-0.19781557609556383	0.4269259947616926	0.5697219672286616	-0.3049200104289311	0.6678156398095317	0.7005019761225545	-0.5232810458497373	0.6819983185547602	0.7964693302242211	-0.6101773667620847	0.705474895706518	0.8602342245308187	-0.6310501736349213	0.6770569789362405	0.8546512764977312	-0.6142689589753806	0.771158871650652	0.8711917171031011
215	5.2439024390243905	0.17817130745552986	0.49972045036944934	0.9181107878077155	0.2294456630083034	0.6487012443149129	1.3596665227118157	0.2977468832008986	0.8660633698749951	1.7576527186759714	0.23800850526103348	0.7143244988432406	1.8169674382545211	0.30716899816196874	0.7086067406830204	1.7992575080290847	0.2946033583003616	0.9442028189880874	1.7952549525922135	0.007434002164458689	0.5675457553963297	0.950614330765874	0.01723278241920604	0.6421279746699646	1.3808197223181375	0.06279633260081395	0.8512750312497412	1.7752894424077799	0.07658120897860721	0.6763227671968464	1.8067116205553015	0.032375871547916504	0.7503705644809295	1.8257421811306342	0.08590744765247714	0.9076433885883072	1.8201323089344237	-0.1063323633703507	0.2721245738384891	0.47060057353077756	-0.18147237814343997	0.19339933224379618	0.2891567795639189	-0.15112074174937692	0.1320887944559631	0.4030639274311734	0.031202110398693222	0.2429063174038238	0.5200217859702776	0.28507644120392783	0.21589708238613145	0.5474519856379455	0.5496290507413422	0.167160547376686	0.5659851797912034	0.6592040267485553	0.16079088664136285	0.617637098187165	0.6773089816583042	0.1604339232384021	0.6211512821976664	0.6573097344814478	0.15839143676312303	0.6402550403378306	-0.1978171364074773	0.42600413467522885	0.5622952296013861	-0.32705949420098585	0.6843441459206326	0.6838832522196184	-0.5374777623753496	0.6871677568678528	0.7575589480014262	-0.6200274761816199	0.7110582252100609	0.818729950338496	-0.6504978762112881	0.6792554618013754	0.8090439872299335	-0.6392062569933203	0.7690397922022087	0.8350214676466279
